<svg xmlns="http://www.w3.org/2000/svg" viewBox="0 0 178.54 172.33"><defs><style>.cls-1{fill:#903928;}</style></defs><g id="Layer_2" data-name="Layer 2"><g id="レイヤー_1" data-name="レイヤー 1"><path class="cls-1" d="M8.56,142.69c1,0,1.44.57,1.44,1.7v2.86a1.63,1.63,0,0,1-.05.43h5a1.69,1.69,0,0,1,0-.43l.18-3.07c.16-.85.58-1.27,1.26-1.27a1.29,1.29,0,0,1,1.44,1.48l-1.07,3.08-.09.21h3c.34,0,.53.14.56.42a2.6,2.6,0,0,1-.51,1.59,1.82,1.82,0,0,1-1.49.69c-.34,0-1.15,0-2.42-.16-.62,0-1.27-.05-1.95-.05v.42c-.06,1.31-.11,2.55-.14,3.71h6.7c.46,0,.71.25.74.64a2.84,2.84,0,0,1-.56,1.75,2,2,0,0,1-1.62.74,19.55,19.55,0,0,1-2.84-.47l-2.47-.11.05,1.22a2.1,2.1,0,0,1,.51,0,12.05,12.05,0,0,1,2.33,1.69q2,1.75,2,2.49a1.09,1.09,0,0,1-1.25,1.22,1.25,1.25,0,0,1-.61-.31,13.36,13.36,0,0,0-3-2.28l.09,8.16c0,2.09-.48,3.13-1.44,3.13s-1.26-1-1.26-3.13q.09-5.09.14-8.69a35.72,35.72,0,0,1-3,3.55,16.12,16.12,0,0,1-4.37,3.28,2.57,2.57,0,0,1-.79.22A3,3,0,0,1,1,165.91a3,3,0,0,1-1-1.85c.09-.39.46-.6,1.12-.64a11.63,11.63,0,0,0,2.65-.53,11.09,11.09,0,0,0,4-2.33A15.09,15.09,0,0,0,11,156.8a34,34,0,0,0-6.37.42,6.42,6.42,0,0,1-1.48.43,1.44,1.44,0,0,1-1.45-1.49,2.19,2.19,0,0,1,.75-1.43A2.58,2.58,0,0,1,4,154.3h7.25c0-1.16-.08-2.4-.14-3.71v-.42a32.37,32.37,0,0,0-5.39.32,6.08,6.08,0,0,1-1.35.32c-.77-.07-1.19-.57-1.25-1.49a2,2,0,0,1,.69-1.27,2.63,2.63,0,0,1,1.49-.37H8.14A3.22,3.22,0,0,1,8,147l-.89-2.86A1.3,1.3,0,0,1,8.56,142.69Zm4-8.27c1.09,0,1.63.62,1.63,1.86-.18,1.06-.32,2-.42,2.92H20c.35,0,.53.21.56.63a2.22,2.22,0,0,1-.51,1.43,1.87,1.87,0,0,1-1.49.64c-.34,0-1.19-.05-2.55-.16s-2.87-.05-4.51-.05a29.23,29.23,0,0,0-5.91.42,5.56,5.56,0,0,1-1.4.37,1.39,1.39,0,0,1-1.44-1.43,2.22,2.22,0,0,1,.75-1.43,2.78,2.78,0,0,1,1.62-.42h6.28a18.44,18.44,0,0,0-.46-2.71Q10.93,134.42,12.55,134.42Zm24,1.44c1.21,0,1.81.76,1.81,2.28a1.28,1.28,0,0,1-1,1.21,41.68,41.68,0,0,1-4.42,1.12,65.63,65.63,0,0,1-7.48,1.22h-.05v6.36c2-.11,3.89-.16,5.53-.16a30.21,30.21,0,0,1,4.14.27c1,.1,1.74.15,2,.15a20.29,20.29,0,0,0,4.18-.42,3.68,3.68,0,0,1,1.07-.21c.37,0,.56.35.56,1.06a6.06,6.06,0,0,1-.88,2.81c-.59.88-1.09,1.32-1.49,1.32a2.61,2.61,0,0,1-1.44-.58A13.52,13.52,0,0,0,36.18,151c-.59-.14-1.15-.27-1.68-.37a6,6,0,0,1,0,.74q-.19,3.29-.19,5.94l.38,11.29c0,2.19-.55,3.29-1.63,3.29-.87,0-1.3-1.1-1.3-3.29,0-4.84,0-8.61,0-11.29q0-2.66-.23-5.94a3.33,3.33,0,0,1,.14-1h-.84a22.23,22.23,0,0,0-5.53.69v4a47.45,47.45,0,0,1-.42,6.78,14.54,14.54,0,0,1-1.49,4.83c-.65,1.16-1.21,1.75-1.67,1.75a3.33,3.33,0,0,1-2-1c-.84-.71-1.26-1.27-1.26-1.7s.25-.63.75-.85A6.79,6.79,0,0,0,22.09,161q1-2.82,1-11.67a82.09,82.09,0,0,0-.56-9.12c0-.81.48-1.22,1.44-1.22a1.59,1.59,0,0,1,1.07.32,32.15,32.15,0,0,0,6.23-1.11,26,26,0,0,0,4.56-2A1.11,1.11,0,0,1,36.55,135.86Z"/><path class="cls-1" d="M56.92,152.87H65.2c0-.88-.08-1.78-.14-2.7,0-1.38.5-2.07,1.49-2.07s1.44.69,1.44,2.07c0,1-.06,1.86-.09,2.7h9.9c.47,0,.7.2.7.59a3,3,0,0,1-.51,1.75,2.1,2.1,0,0,1-1.63.74,34.29,34.29,0,0,1-3.72-.43c-1.24-.07-2.53-.12-3.86-.15A7.22,7.22,0,0,1,70,156.48q9.72,7.89,12.09,8.85a17.83,17.83,0,0,0,3.67.8c.59,0,.88.26.88.79a3,3,0,0,1-1.53,2.23A5.33,5.33,0,0,1,82,170.26a2.89,2.89,0,0,1-2-.85,122.9,122.9,0,0,0-8.84-9.22,24.15,24.15,0,0,0-3.3-2.49l.33,10.92c0,2.19-.55,3.29-1.63,3.29-.87,0-1.3-1.1-1.3-3.29,0-4.46,0-8.06,0-10.82a47.33,47.33,0,0,1-6.79,7.43,27,27,0,0,1-7.06,4.5,4.5,4.5,0,0,1-1.26.32,3.49,3.49,0,0,1-2.42-1.54,3.13,3.13,0,0,1-1-2c.09-.53.51-.81,1.26-.85a18.33,18.33,0,0,0,4.32-.85,17.47,17.47,0,0,0,6.65-3.6,26.37,26.37,0,0,0,5.26-5.88,32.48,32.48,0,0,0-6.38.53,8.43,8.43,0,0,1-1.86.47,1.6,1.6,0,0,1-1.62-1.64,2.13,2.13,0,0,1,.79-1.43A3.12,3.12,0,0,1,56.92,152.87Zm20.14-18.66c1.18,0,1.78.59,1.81,1.65a3.44,3.44,0,0,1-.51,1.69q-1.62,3.13-2.6,5a2.55,2.55,0,0,0-.19.37c1.92.11,3.69.23,5.3.37l1.82-.42c.86,0,1.3.35,1.3,1.06a2.58,2.58,0,0,1-.28,1.06,28.94,28.94,0,0,0-1,6.57c0,.85-.36,1.27-1.07,1.27s-1.12-.42-1.12-1.27c0-1.8.06-3.46.19-5,0-.11-.24-.29-.7-.53a75.86,75.86,0,0,0-12.37-.9,121,121,0,0,0-12.79.63q-1.77.1-2,.9l0,.32c0,2.79-.19,4.45-.56,5a1,1,0,0,1-1.07.84c-.49,0-.74-.21-.74-.63a43.9,43.9,0,0,0-.75-8.7,1.14,1.14,0,0,1,1.31-1.27,2.18,2.18,0,0,1,1.3.32,3.29,3.29,0,0,0,1.21.32c2.91-.14,6.72-.22,11.44-.22,3.13,0,6,.06,8.64.16.25-1.06,1-3.58,2.28-7.58A1.24,1.24,0,0,1,77.06,134.21Zm-19.81.43a1.51,1.51,0,0,1,1.3,1.22,27.83,27.83,0,0,1,.88,4.56q0,.84-.69.84c-.44,0-.85-.37-1.26-1.11-.43-1-.88-1.91-1.35-2.86a3.68,3.68,0,0,1-.32-1.43C55.81,135.08,56.29,134.67,57.25,134.64Zm8-.64a1.55,1.55,0,0,1,1.3,1.27,43.58,43.58,0,0,1,.7,4.93c0,.57-.27.85-.7.85s-.79-.39-1.16-1.16c-.44-1-.86-2-1.26-3.08a4.29,4.29,0,0,1-.32-1.54C63.81,134.46,64.29,134,65.25,134Z"/><path class="cls-1" d="M105,134.42c.75,0,1.12.36,1.12,1.06a3.08,3.08,0,0,1-.37,1.44,46,46,0,0,1-4.33,5.3,2.91,2.91,0,0,1,.33,1.54c-.16,3-.23,5.65-.23,8.05l0,16.6c0,2.19-.54,3.28-1.63,3.28-.83,0-1.25-1.09-1.25-3.28q.33-10.6.32-16.6c0-2.12,0-4.48-.13-7.1-.44.42-.87.81-1.31,1.17a5.32,5.32,0,0,1-3.07,1.59,3,3,0,0,1-2-1,2.65,2.65,0,0,1-1.07-2c0-.49.31-.76.93-.79a17.7,17.7,0,0,0,6.28-3.08,22.71,22.71,0,0,0,5.72-5.83C104.63,134.57,104.86,134.42,105,134.42Zm3.68,8.91h21.06a.62.62,0,0,1,.7.64,3,3,0,0,1-.51,1.75,2.1,2.1,0,0,1-1.63.74,33.09,33.09,0,0,1-3.77-.48c-1.48-.07-3.08-.12-4.79-.16l-.09,8.27h8.46c.44,0,.67.25.7.64a3,3,0,0,1-.51,1.75,2.14,2.14,0,0,1-1.67.74,22.72,22.72,0,0,1-3.12-.48c-1.21-.07-2.5-.12-3.86-.16l-.09,8.54a39.81,39.81,0,0,1,6,.74,39.85,39.85,0,0,0,6,.48,9.85,9.85,0,0,0,2-.21c.13,0,.19.19.19.58a6.09,6.09,0,0,1-.65,2.7c-.47,1-.92,1.49-1.35,1.49a3,3,0,0,1-1.72-.58,22,22,0,0,0-6.32-2.34,31.42,31.42,0,0,0-5.58-.42,29,29,0,0,0-6.42.63,35.65,35.65,0,0,0-5.67,2.23,3,3,0,0,1-1.35.48c-.84-.07-1.27-.64-1.3-1.7a2.07,2.07,0,0,1,.69-1.48,2.67,2.67,0,0,1,1.49-.8,84.74,84.74,0,0,1,11.44-1.8l-.05-8.54a38.89,38.89,0,0,0-6.13.43,7,7,0,0,1-1.63.42,1.45,1.45,0,0,1-1.44-1.48,2.22,2.22,0,0,1,.74-1.43,2.74,2.74,0,0,1,1.63-.43h6.79l0-8.27a53.44,53.44,0,0,0-7.21.43,11.49,11.49,0,0,1-1.9.37,1.36,1.36,0,0,1-1.44-1.43,2.16,2.16,0,0,1,.74-1.43A2.72,2.72,0,0,1,108.69,143.33Zm9.81-8.27c1.08,0,1.63.62,1.63,1.86l-.89,3.87c-.12.6-.37.9-.74.9a1,1,0,0,1-1.12-1l-.56-4A1.47,1.47,0,0,1,118.5,135.06Z"/><path class="cls-1" d="M158,134c1.21,0,1.82.69,1.82,2.07-.22,1.31-.38,2.49-.47,3.55q7.53.1,13.16.58l2-.37c.87,0,1.3.41,1.3,1.22a2.43,2.43,0,0,1-.28,1.06,30.49,30.49,0,0,0-1,6.63c0,.95-.42,1.43-1.26,1.43s-1.11-.43-1.11-1.27c0-1.88.06-3.59.18-5.14,0-.15-.24-.32-.74-.54a83.12,83.12,0,0,0-13.25-.95,104.54,104.54,0,0,0-12.79.74c-1.12.07-1.78.37-2,.9l-.09.48a17.91,17.91,0,0,1-.37,4.93,1.15,1.15,0,0,1-1.26.85c-.62,0-.93-.21-.93-.64a49,49,0,0,0-.7-8.9,1.27,1.27,0,0,1,1.44-1.43,2.21,2.21,0,0,1,1.4.37,3,3,0,0,0,1.35.42q4.23-.37,11.06-.37h1.35a21.72,21.72,0,0,0-.6-3.34C156.22,134.76,156.82,134,158,134Zm8.88,10.55c.63,0,.93.35.93,1.06s-.24,1.08-.74,1.22q-4.51,1.32-8.14,2.12a2.09,2.09,0,0,1,.14.79c0,1.74,0,3.66,0,5.78q7.84-.84,12.92-1c1.12,0,1.68.4,1.68,1.22s-.31,1.34-.93,1.48q-7,.42-13.77,1.17-.09,3.23-.23,6.89c0,1,.34,1.55,1,1.7a73.59,73.59,0,0,0,9.72.37A20.81,20.81,0,0,0,178,165.7c.37,0,.56.34.56,1a7.75,7.75,0,0,1-1,3.45c-.77,1.45-1.47,2.17-2.09,2.17s-6.39-.72-17-2.17c-1.61-.29-2.42-1.15-2.42-2.6q.28-5.52.33-8.86l-5.12.75a67.62,67.62,0,0,0-7.72,1.54,7.22,7.22,0,0,1-1.67.37c-1.09,0-1.63-.48-1.63-1.44a2.16,2.16,0,0,1,1.82-2.27q8-1.12,14.32-1.86,0-2.91-.14-6.2c-.78.17-1.51.32-2.19.42a34.31,34.31,0,0,1-4.55.58,3,3,0,0,1-2.19-1,2.44,2.44,0,0,1-.74-1.7c0-.39.24-.6.74-.64a65.64,65.64,0,0,0,11.21-.95,54.17,54.17,0,0,0,7.48-1.64A5.44,5.44,0,0,1,166.91,144.55Z"/><path class="cls-1" d="M53.34,47.6A13,13,0,0,1,53.07,45c0-7.78,7.13-14.1,15.93-14.1,6.73,0,12.48,3.71,14.81,8.94H141a15.37,15.37,0,0,0-5.54-9.45L94.93,1.65a10.53,10.53,0,0,0-11.32,0L43.06,30.4a15.13,15.13,0,0,0-5.65,11V55.44h88.5a12.21,12.21,0,0,1,.28,2.58c0,7.78-7.14,14.1-15.94,14.1-6.73,0-12.48-3.71-14.82-8.94h-58V78.13a7,7,0,0,0,6.93,6.94h89.85a7,7,0,0,0,6.94-6.94V47.6H53.34Z"/><path class="cls-1" d="M47.26,99c-6-1-7.22-1.73-7.22-4.83a4.86,4.86,0,0,1,5.23-5.09c4.85,0,7.09,3.54,7.41,7.47h.58V89.35h-.58c-.11.44-.22,1.3-1,1.3-1.24,0-2.64-2.11-6.37-2.11a6.48,6.48,0,0,0-6.75,6.8c0,5.77,2.67,6.67,8.34,7.53,4.16.62,6.11,1.68,6.11,5.26,0,3.1-2.49,5.2-6,5.2-4.33,0-7.91-2.73-7.91-8.5h-.58v8.7h.58c0-.58,0-1.45.91-1.45,1.33,0,3.24,1.8,6.85,1.8,5.25,0,7.85-3.37,7.85-7.88S52.54,99.91,47.26,99Z"/><path class="cls-1" d="M72.19,102.35c0-2-1-3.89-4.77-3.89A6.14,6.14,0,0,0,62.23,102h-.07V88.89H56.48v.56h2.75v23.32H56.48v.56H64.8v-.56H62.16v-9.7c.63-1.17,2.13-4,5-4,1.11,0,2.06.61,2.06,2.5v11.25H66.52v.56H75v-.56H72.19Z"/><polygon class="cls-1" points="82.31 99.22 76.39 99.22 76.39 99.77 79.28 99.77 79.28 112.77 76.39 112.77 76.39 113.33 85.2 113.33 85.2 112.77 82.31 112.77 82.31 99.22"/><path class="cls-1" d="M80.8,94a1.76,1.76,0,1,0,0-3.51,1.76,1.76,0,1,0,0,3.51Z"/><path class="cls-1" d="M102.2,102.35c0-2-1-3.89-4.33-3.89-2.31,0-3.89,1.86-4.72,3.51H93.1V99.22H87.93v.55h2.5v13h-2.5v.56H95.5v-.56H93.1v-9.7c.56-1.17,1.92-4,4.58-4,1,0,1.87.61,1.87,2.5v11.25h-2.5v.56h7.65v-.56h-2.5Z"/><path class="cls-1" d="M122.58,113.18c-3.4,0-3.76-2.75-3.72-5.19v-3.23h9.43a.28.28,0,0,0,.32-.31c0-1.44-2.2-6-6.47-6-3.93,0-6.76,4.3-6.76,7.64,0,4.54,3,7.64,7.2,7.64a6.24,6.24,0,0,0,6.36-5.3h-.57A5.65,5.65,0,0,1,122.58,113.18Zm-3.72-9.94c0-2.2.77-4.22,3.28-4.22s3,2,3,4.22V104a.23.23,0,0,1-.26.24h-6Z"/><polygon class="cls-1" points="137.13 112.77 137.14 99.22 131.2 99.22 131.2 99.77 134.1 99.77 134.1 112.77 131.2 112.77 131.2 113.33 140.02 113.33 140.02 112.77 137.13 112.77"/><path class="cls-1" d="M135.62,94a1.76,1.76,0,1,0,0-3.51,1.76,1.76,0,1,0,0,3.51Z"/><path class="cls-1" d="M105.79,102.84h7.46v1.06h-7.46Z"/></g></g></svg>