<svg xmlns="http://www.w3.org/2000/svg" viewBox="0 0 466.58 85.02"><defs><style>.cls-1{fill:#2c2c2c;}</style></defs><g id="Layer_2" data-name="Layer 2"><g id="レイヤー_1" data-name="レイヤー 1"><path class="cls-1" d="M110.57,54.18c1,0,1.44.57,1.44,1.7v2.86a1.2,1.2,0,0,1-.05.42h5a1.5,1.5,0,0,1,0-.42l.19-3.07c.15-.85.57-1.28,1.25-1.28a1.3,1.3,0,0,1,1.44,1.49L118.75,59l-.09.21h3c.34,0,.52.15.55.43a2.6,2.6,0,0,1-.51,1.59,1.82,1.82,0,0,1-1.49.69c-.34,0-1.14,0-2.41-.16-.62,0-1.27-.05-2-.05v.42c-.06,1.31-.11,2.54-.14,3.71h6.7c.46,0,.71.25.74.64a2.85,2.85,0,0,1-.55,1.75,2.1,2.1,0,0,1-1.63.74,18.9,18.9,0,0,1-2.84-.48l-2.46-.1,0,1.22a2.12,2.12,0,0,1,.52-.06,13,13,0,0,1,2.32,1.7c1.36,1.17,2,2,2,2.49a1.1,1.1,0,0,1-1.26,1.22,1.28,1.28,0,0,1-.6-.32,14.28,14.28,0,0,0-3-2.28l.09,8.17q0,3.12-1.44,3.12c-.84,0-1.25-1-1.25-3.12.06-3.4.1-6.3.14-8.7a36,36,0,0,1-3,3.55,16.15,16.15,0,0,1-4.37,3.29,2.7,2.7,0,0,1-.79.21A3,3,0,0,1,103,77.4a3,3,0,0,1-1-1.85c.1-.39.47-.6,1.12-.64a12.08,12.08,0,0,0,2.65-.53,11.09,11.09,0,0,0,4-2.33A15,15,0,0,0,113,68.28a32.77,32.77,0,0,0-6.37.43,6.22,6.22,0,0,1-1.49.42,1.41,1.41,0,0,1-1.44-1.48,2.2,2.2,0,0,1,.74-1.43,2.52,2.52,0,0,1,1.58-.43h7.26c0-1.17-.08-2.4-.14-3.71v-.42a32.79,32.79,0,0,0-5.4.31,5.53,5.53,0,0,1-1.35.32c-.77-.07-1.19-.56-1.25-1.48a2,2,0,0,1,.7-1.27,2.6,2.6,0,0,1,1.48-.38h2.84a3,3,0,0,1-.14-.63l-.88-2.86A1.3,1.3,0,0,1,110.57,54.18Zm4-8.27c1.08,0,1.63.62,1.63,1.86q-.28,1.59-.42,2.91H122c.34,0,.52.21.56.64a2.17,2.17,0,0,1-.52,1.43,1.88,1.88,0,0,1-1.48.64c-.34,0-1.2-.06-2.56-.16s-2.87-.06-4.51-.06a29,29,0,0,0-5.91.43,5.63,5.63,0,0,1-1.39.37,1.39,1.39,0,0,1-1.44-1.43,2.22,2.22,0,0,1,.74-1.43,2.74,2.74,0,0,1,1.63-.43h6.28a18.51,18.51,0,0,0-.47-2.7C112.94,46.6,113.48,45.91,114.57,45.91Zm24,1.43c1.21,0,1.82.76,1.82,2.28,0,.57-.35,1-1,1.22A39.82,39.82,0,0,1,134.93,52a65.63,65.63,0,0,1-7.48,1.22h0v6.37c2-.11,3.89-.16,5.54-.16a30.21,30.21,0,0,1,4.13.26c1.06.11,1.74.16,2.05.16a20.22,20.22,0,0,0,4.18-.42,3.82,3.82,0,0,1,1.07-.22c.38,0,.56.36.56,1.06a5.91,5.91,0,0,1-.88,2.81c-.59.89-1.09,1.33-1.49,1.33a2.75,2.75,0,0,1-1.44-.58,13.54,13.54,0,0,0-2.93-1.28l-1.67-.37a6.28,6.28,0,0,1,0,.75q-.18,3.28-.18,5.93l.37,11.29c0,2.2-.54,3.29-1.63,3.29-.87,0-1.3-1.09-1.3-3.29q0-7.26.05-11.29,0-2.64-.24-5.93a3.33,3.33,0,0,1,.14-1h-.83a22.25,22.25,0,0,0-5.54.69v4a47.5,47.5,0,0,1-.42,6.79,14.41,14.41,0,0,1-1.48,4.82c-.66,1.17-1.21,1.75-1.68,1.75a3.33,3.33,0,0,1-2-1c-.84-.71-1.25-1.28-1.25-1.7s.24-.64.74-.85a6.85,6.85,0,0,0,2.79-3.87q1-2.81,1-11.66a81.94,81.94,0,0,0-.55-9.12c0-.81.48-1.22,1.44-1.22a1.63,1.63,0,0,1,1.07.32,33.25,33.25,0,0,0,6.23-1.11,25.55,25.55,0,0,0,4.55-2A1.13,1.13,0,0,1,138.56,47.34Z"/><path class="cls-1" d="M158.94,64.36h8.27c0-.88-.07-1.78-.13-2.7,0-1.38.49-2.07,1.48-2.07s1.44.69,1.44,2.07q0,1.43-.09,2.7h9.91c.46,0,.69.19.69.58a3,3,0,0,1-.51,1.75,2,2,0,0,1-1.63.74,36.63,36.63,0,0,1-3.72-.42c-1.24-.07-2.52-.12-3.86-.16A7.74,7.74,0,0,1,172.05,68q9.72,7.91,12.09,8.86a18,18,0,0,0,3.67.79c.59,0,.89.27.89.8,0,.74-.51,1.48-1.54,2.23A5.31,5.31,0,0,1,184,81.75a2.91,2.91,0,0,1-2-.85,122.69,122.69,0,0,0-8.83-9.22,24.55,24.55,0,0,0-3.31-2.5l.33,10.92c0,2.2-.54,3.29-1.63,3.29-.87,0-1.3-1.09-1.3-3.29q0-6.67.05-10.81a47.73,47.73,0,0,1-6.79,7.42,27,27,0,0,1-7.07,4.51,4.5,4.5,0,0,1-1.26.32A3.49,3.49,0,0,1,149.78,80a3.17,3.17,0,0,1-1-2c.1-.53.51-.82,1.26-.85a18.86,18.86,0,0,0,4.32-.85,17.54,17.54,0,0,0,6.65-3.6,26.64,26.64,0,0,0,5.26-5.89,33.16,33.16,0,0,0-6.37.53,8.09,8.09,0,0,1-1.86.48,1.61,1.61,0,0,1-1.63-1.64,2.15,2.15,0,0,1,.79-1.44A3.22,3.22,0,0,1,158.94,64.36ZM179.07,45.7c1.18,0,1.78.58,1.82,1.64a3.5,3.5,0,0,1-.52,1.7q-1.62,3.12-2.6,5c-.06.1-.12.23-.19.37,1.93.1,3.69.23,5.31.37l1.81-.43c.87,0,1.3.36,1.3,1.06a2.4,2.4,0,0,1-.28,1.06,29.74,29.74,0,0,0-1,6.58c0,.85-.36,1.27-1.07,1.27s-1.12-.42-1.12-1.27c0-1.8.07-3.47.19-5,0-.1-.23-.28-.7-.53a75.77,75.77,0,0,0-12.37-.9,117.94,117.94,0,0,0-12.78.64c-1.18.07-1.87.37-2,.9l-.05.32c0,2.79-.18,4.45-.56,5a1,1,0,0,1-1.07.85c-.49,0-.74-.21-.74-.64a44.7,44.7,0,0,0-.74-8.69,1.13,1.13,0,0,1,1.3-1.27,2.09,2.09,0,0,1,1.3.32,3.29,3.29,0,0,0,1.21.31c2.91-.14,6.73-.21,11.44-.21q4.7,0,8.65.16.38-1.59,2.28-7.58A1.22,1.22,0,0,1,179.07,45.7Zm-19.81.42a1.51,1.51,0,0,1,1.3,1.22,28.76,28.76,0,0,1,.89,4.56c0,.57-.27.85-.7.85s-.85-.37-1.25-1.11c-.44-1-.89-1.91-1.35-2.87a3.49,3.49,0,0,1-.33-1.43C157.82,46.56,158.3,46.16,159.26,46.12Zm8-.63a1.53,1.53,0,0,1,1.3,1.27,40.92,40.92,0,0,1,.7,4.93c0,.57-.26.85-.7.85s-.79-.39-1.16-1.17c-.43-1-.85-2-1.26-3.07a4.51,4.51,0,0,1-.32-1.54C165.82,46,166.3,45.52,167.26,45.49Z"/><path class="cls-1" d="M207,45.91c.74,0,1.11.35,1.11,1.06a2.93,2.93,0,0,1-.37,1.43,44.12,44.12,0,0,1-4.32,5.3,3.07,3.07,0,0,1,.32,1.54q-.22,4.45-.23,8.06l.05,16.59c0,2.19-.55,3.29-1.63,3.29-.84,0-1.26-1.1-1.26-3.29.22-7.06.33-12.6.33-16.59q0-3.18-.14-7.1c-.44.42-.87.81-1.3,1.16A5.35,5.35,0,0,1,196.52,59a3.06,3.06,0,0,1-2.05-1,2.7,2.7,0,0,1-1.07-2c0-.5.31-.76.93-.8a17.44,17.44,0,0,0,6.28-3.07,22.76,22.76,0,0,0,5.72-5.84A1.31,1.31,0,0,1,207,45.91Zm3.67,8.91h21.06a.61.61,0,0,1,.7.63A3,3,0,0,1,232,57.2a2.06,2.06,0,0,1-1.63.74,32.07,32.07,0,0,1-3.76-.47c-1.49-.07-3.09-.13-4.79-.16l-.1,8.27h8.47a.65.65,0,0,1,.69.64,3,3,0,0,1-.51,1.74,2.1,2.1,0,0,1-1.67.75,22.94,22.94,0,0,1-3.12-.48c-1.21-.07-2.49-.12-3.86-.16l-.09,8.54a38.57,38.57,0,0,1,6,.74,40.08,40.08,0,0,0,6,.48,10,10,0,0,0,2-.22c.12,0,.18.2.18.59a6,6,0,0,1-.65,2.7c-.46,1-.91,1.48-1.35,1.48A3,3,0,0,1,232,81.8a22,22,0,0,0-6.32-2.33,31.32,31.32,0,0,0-5.58-.43,28.9,28.9,0,0,0-6.42.64,35.65,35.65,0,0,0-5.67,2.23,2.93,2.93,0,0,1-1.35.47c-.84-.07-1.27-.63-1.3-1.69a2.06,2.06,0,0,1,.7-1.49,2.62,2.62,0,0,1,1.48-.79A84.74,84.74,0,0,1,219,76.61l0-8.54a39,39,0,0,0-6.14.43,7,7,0,0,1-1.63.42,1.46,1.46,0,0,1-1.44-1.49,2.25,2.25,0,0,1,.74-1.43,2.83,2.83,0,0,1,1.63-.42h6.79l-.05-8.27a53.66,53.66,0,0,0-7.2.42,10.67,10.67,0,0,1-1.91.37,1.35,1.35,0,0,1-1.44-1.43,2.25,2.25,0,0,1,.74-1.43A2.83,2.83,0,0,1,210.7,54.82Zm9.81-8.27c1.09,0,1.63.62,1.63,1.85l-.89,3.87c-.12.6-.37.9-.74.9-.71,0-1.08-.33-1.11-1l-.56-4A1.47,1.47,0,0,1,220.51,46.55Z"/><path class="cls-1" d="M260.05,45.49c1.2,0,1.81.69,1.81,2.06-.22,1.31-.37,2.5-.47,3.56q7.55.11,13.16.58l2-.37c.87,0,1.31.41,1.31,1.22a2.58,2.58,0,0,1-.28,1.06,29.64,29.64,0,0,0-1,6.62c0,1-.42,1.44-1.25,1.44s-1.12-.43-1.12-1.28c0-1.87.06-3.58.19-5.14,0-.14-.25-.32-.75-.53a83.12,83.12,0,0,0-13.25-1,102.59,102.59,0,0,0-12.79.74c-1.11.07-1.78.37-2,.9l-.09.48a17.53,17.53,0,0,1-.37,4.93,1.15,1.15,0,0,1-1.26.85c-.62,0-.93-.22-.93-.64a50.09,50.09,0,0,0-.69-8.91,1.27,1.27,0,0,1,1.44-1.43,2.24,2.24,0,0,1,1.39.37,2.93,2.93,0,0,0,1.35.43q4.23-.37,11.07-.37h1.35a23,23,0,0,0-.61-3.34C258.23,46.25,258.84,45.49,260.05,45.49ZM268.93,56c.62,0,.93.35.93,1.06s-.25,1.07-.75,1.22c-3,.88-5.72,1.59-8.13,2.12a2.26,2.26,0,0,1,.13.79c0,1.73,0,3.66,0,5.78q7.86-.84,12.93-1c1.11,0,1.67.41,1.67,1.22s-.31,1.35-.93,1.49q-7,.42-13.76,1.16c-.07,2.16-.14,4.46-.24,6.89,0,1,.34,1.56,1,1.7a71.68,71.68,0,0,0,9.71.37A20.77,20.77,0,0,0,280,77.19c.38,0,.56.34.56,1a7.68,7.68,0,0,1-1,3.44c-.78,1.45-1.48,2.18-2.1,2.18s-6.38-.73-17-2.18c-1.62-.28-2.42-1.15-2.42-2.6q.27-5.51.32-8.85l-5.11.74a71.29,71.29,0,0,0-7.72,1.54,6.85,6.85,0,0,1-1.68.37c-1.08,0-1.62-.47-1.62-1.43a2.17,2.17,0,0,1,1.81-2.28Q252,68,258.37,67.28q0-2.93-.14-6.21c-.77.18-1.5.32-2.18.43a34.59,34.59,0,0,1-4.56.58,3,3,0,0,1-2.19-1,2.46,2.46,0,0,1-.74-1.69c0-.39.25-.6.74-.64a66.58,66.58,0,0,0,11.21-1A52.79,52.79,0,0,0,268,56.14,5.09,5.09,0,0,1,268.93,56Z"/><path class="cls-1" d="M291.6,54h4.84c0-1.87-.08-3.87-.14-6q0-2.07,1.44-2.07c1,0,1.49.69,1.49,2.07q-.15,3.18-.19,6h4.51c.34,0,.53.25.56.64A2.11,2.11,0,0,1,303.6,56a1.89,1.89,0,0,1-1.49.63c-.28,0-.95-.05-2-.16H299c0,.57-.05,1.13-.05,1.7l.05,4.93a1.57,1.57,0,0,1,.37,0,16.91,16.91,0,0,1,2.51,1.75c1.46,1.23,2.19,2.1,2.19,2.59a1.12,1.12,0,0,1-1.26,1.28,1.25,1.25,0,0,1-.65-.37A15.07,15.07,0,0,0,299.09,66l.14,14.1c0,2.2-.56,3.29-1.68,3.29-.83,0-1.25-1.09-1.25-3.29q.09-7.78.14-13.62a24.17,24.17,0,0,1-1.91,2.65,12.6,12.6,0,0,1-3.3,2.86,1.27,1.27,0,0,1-.56.22,3,3,0,0,1-2.14-1.44,3,3,0,0,1-.93-1.85c.06-.39.42-.6,1.07-.64a7.78,7.78,0,0,0,2-.42,8.22,8.22,0,0,0,3-2,12,12,0,0,0,2.46-3.24,1.16,1.16,0,0,1,.37-.42V56.46a16.29,16.29,0,0,0-4.69.48,4.67,4.67,0,0,1-1.12.37,1.4,1.4,0,0,1-1.44-1.43,2.08,2.08,0,0,1,.74-1.43A2.57,2.57,0,0,1,291.6,54Zm19.25-3.92a.94.94,0,0,1,1.07,1.06,3.33,3.33,0,0,1-.32,1.06q-.47,1.21-.93,2.22h4.13q0-2.91-.13-6.2c0-1.24.47-1.86,1.44-1.86s1.25.62,1.25,1.86q-.09,3.29-.14,6.2h6.88c.47,0,.72.25.75.64a2.86,2.86,0,0,1-.56,1.75,2.1,2.1,0,0,1-1.63.74,12.53,12.53,0,0,1-2.32-.48c-1-.07-2-.12-3.16-.16v1.6l0,4.18h9.07a.67.67,0,0,1,.7.64,3,3,0,0,1-.51,1.75,2.1,2.1,0,0,1-1.63.74,27.71,27.71,0,0,1-3.26-.42c-1.27-.11-2.63-.16-4.09-.16a6,6,0,0,1,1.12,1.11q7,6.84,8.69,7.69a9.59,9.59,0,0,0,2.61.69c.49,0,.74.28.74.85s-.46,1.27-1.39,1.9a4.76,4.76,0,0,1-2.79,1,2.6,2.6,0,0,1-1.82-.8q-2.6-4-5.86-8a16.14,16.14,0,0,0-1.53-1.65l.09,12.78c0,2.08-.48,3.13-1.44,3.13s-1.25-1-1.25-3.13q.09-7,.09-12.51a35.32,35.32,0,0,1-4.05,5.88,17.27,17.27,0,0,1-4.83,4.24,2.44,2.44,0,0,1-.84.32,3.13,3.13,0,0,1-2.19-1.43,3.06,3.06,0,0,1-.93-1.86c.1-.38.47-.6,1.12-.63a10.9,10.9,0,0,0,2.93-.8,11.88,11.88,0,0,0,4.51-3.39,24.78,24.78,0,0,0,3.44-5.3,23.2,23.2,0,0,0-5.39.53,6.8,6.8,0,0,1-1.68.48,1.62,1.62,0,0,1-1.63-1.65,2,2,0,0,1,.8-1.43,2.8,2.8,0,0,1,1.71-.48h7.07V56.88a23.56,23.56,0,0,0-4,.43,4.7,4.7,0,0,1-1.26.42l-.42-.1c-.34.67-.64,1.2-.88,1.59-.53.74-1,1.13-1.4,1.16a3.07,3.07,0,0,1-1.76-.79,2.52,2.52,0,0,1-1-1.49c0-.14.12-.26.37-.37a8.69,8.69,0,0,0,2.61-2.28,27.48,27.48,0,0,0,3.2-5A.6.6,0,0,1,310.85,50.05Z"/><path class="cls-1" d="M339.38,53.6h17q-.24-4.56-.24-6.05c0-.95.45-1.43,1.26-1.43s1.44.59,1.44,1.65v1.85c0,1.42,0,2.74.05,4h11.76c.47,0,.72.19.75.58a2.84,2.84,0,0,1-.56,1.75,2.1,2.1,0,0,1-1.63.74q-1.15,0-5.72-.42c-1.43-.07-2.91-.12-4.46-.16a38.35,38.35,0,0,0,.41,3.92,25.56,25.56,0,0,0,2.52,8.17,19.79,19.79,0,0,0,5.62,7.15,13.94,13.94,0,0,0,6.37,2.87c.47.1.7.46.7,1.06a3.84,3.84,0,0,1-1.07,2.38A3.46,3.46,0,0,1,371.19,83a4.93,4.93,0,0,1-2.46-1.22,28.83,28.83,0,0,1-6.61-7,31.9,31.9,0,0,1-4.09-9,44.6,44.6,0,0,1-1.49-9.75c-1.05,0-2.14-.05-3.25-.05a87.18,87.18,0,0,0-12.05.58,17,17,0,0,1-2.74.48,1.63,1.63,0,0,1-1.67-1.65,2.41,2.41,0,0,1,.83-1.43A3,3,0,0,1,339.38,53.6Zm1.12,9.28h12.14c.34,0,.52.24.55.63a2.09,2.09,0,0,1-.51,1.43,1.87,1.87,0,0,1-1.49.64c-.27,0-.94,0-2-.16-.59,0-1.2,0-1.82,0l-.14,8.27c2.67-.53,4.71-.87,6.14-1,.5,0,.74.28.74.85a1.3,1.3,0,0,1-.93,1.43,117.47,117.47,0,0,0-14,4.13c-1,0-1.44-.4-1.44-1.21a3.7,3.7,0,0,1,.37-1.86c.15-.32.59-.56,1.3-.74q2.88-.65,5.21-1.12l-.14-8.74a17.33,17.33,0,0,0-3.81.47,4.3,4.3,0,0,1-1.12.38,1.4,1.4,0,0,1-1.44-1.44,2.1,2.1,0,0,1,.74-1.43A2.55,2.55,0,0,1,340.5,62.88Zm25.95-16.76a1.29,1.29,0,0,1,1.48,1.43,4.25,4.25,0,0,1-.18,1.49,29.66,29.66,0,0,1-4,2.86c-.62,0-.93-.26-.93-.79A34.73,34.73,0,0,1,365,47,1.61,1.61,0,0,1,366.45,46.12Z"/><path class="cls-1" d="M399.18,46.12c.62,0,1,.36,1,1.06a5,5,0,0,1,2.23,1.43Q412.62,56,415.13,57a23,23,0,0,0,3.81.74c.62,0,.93.27.93.8,0,.78-.54,1.55-1.63,2.33a5.34,5.34,0,0,1-3.3,1.22A3,3,0,0,1,412.8,61q-4.12-4.25-9.29-8.64a22.94,22.94,0,0,0-4-2.6,2.1,2.1,0,0,1-.56-.37,48.4,48.4,0,0,1-7.68,7.26,30.76,30.76,0,0,1-8.13,4.46,5.24,5.24,0,0,1-1.44.31,3.37,3.37,0,0,1-2.38-1.53,3.11,3.11,0,0,1-1.06-2c.09-.53.52-.81,1.3-.84a28.27,28.27,0,0,0,4.93-.8,23,23,0,0,0,7.62-3.6,25.37,25.37,0,0,0,6.14-5.94A1,1,0,0,1,399.18,46.12Zm-13.3,20.73a2.05,2.05,0,0,1,.93.21q6.51-.63,11.63-.63c2.13,0,5.42.1,9.85.32.75.07,1.4.1,2,.1a9.92,9.92,0,0,0,1.86-.26,7.41,7.41,0,0,1,1.39-.37c.37,0,.56.14.56.42A4.85,4.85,0,0,1,413,69.4Q412,71,411,71a9.9,9.9,0,0,1-2.61-.64,34.83,34.83,0,0,0-9.9-1.22h-.52a3,3,0,0,1,.14,1,1.05,1.05,0,0,1-.14.53q-1.57,2.81-2.51,4.4c-.52.81-1.16,1.73-1.9,2.76,0,.24.25.37.74.37h10.88c.62,0,.93-.2.93-.59a.54.54,0,0,0-.09-.26A37.32,37.32,0,0,0,404,74a.62.62,0,0,1-.14-.32,1.29,1.29,0,0,1,1.44-1.48.65.65,0,0,1,.51.31q1.62,2.34,3.63,5.89a1.78,1.78,0,0,1,.23.85c0,.95-.42,1.43-1.26,1.43H394.25c-.93,0-2.08.07-3.44.21-1.21,0-1.81-.48-1.81-1.43a2.07,2.07,0,0,1,.69-1.27A19,19,0,0,0,391,76.61,27.83,27.83,0,0,0,393,73.85a34.82,34.82,0,0,0,2.23-4.56.47.47,0,0,1,.05-.16,35.64,35.64,0,0,0-7.54.8,8.73,8.73,0,0,1-2.32.42c-.75,0-1.12-.41-1.12-1.22a2.77,2.77,0,0,1,.56-1.59A1.4,1.4,0,0,1,385.88,66.85Zm7.63-7.69h12.92a.61.61,0,0,1,.56.64,2.22,2.22,0,0,1-.51,1.43,2,2,0,0,1-1.49.64c-.31,0-1,0-2.18-.16s-2.45-.05-3.82-.05a22.4,22.4,0,0,0-5.16.42,4.08,4.08,0,0,1-1.21.42A1.41,1.41,0,0,1,391.18,61a2.28,2.28,0,0,1,.7-1.43A2.79,2.79,0,0,1,393.51,59.16Z"/><path class="cls-1" d="M434.21,45.7c1.09,0,1.63.62,1.63,1.85-.22,1.67-.37,3.15-.47,4.46,1.34.07,2.59.17,3.77.32a3.09,3.09,0,0,1,1.07-.22c.87,0,1.3.62,1.3,1.86a1,1,0,0,1-.37.64c-.22.42-.8,1.48-1.77,3.18a35.26,35.26,0,0,1-3.11,4.55c.37.25,1.22.91,2.56,2,1.67,1.38,2.51,2.35,2.51,2.91A1.15,1.15,0,0,1,440,68.5c-.15,0-.38-.15-.69-.43a15.36,15.36,0,0,0-3.49-2.7c-.12,1.73-.19,3.32-.19,4.77l.19,10c0,2.2-.54,3.29-1.63,3.29-.83,0-1.25-1.09-1.25-3.29q.18-6.36.18-10c0-1.31,0-2.72-.14-4.24a20.25,20.25,0,0,1-3.34,2.86,5.33,5.33,0,0,1-2.33.95,2.92,2.92,0,0,1-1.81-.9,2.52,2.52,0,0,1-1.12-2c0-.46.31-.74.93-.85a14.8,14.8,0,0,0,3-.74A15,15,0,0,0,433.19,62a28.22,28.22,0,0,0,4.6-6.15c.28-.32.42-.53.42-.64,0-.39-.14-.58-.42-.58a4.56,4.56,0,0,0-1.58-.27,33.14,33.14,0,0,0-7.53.53,6.51,6.51,0,0,1-1.54.32c-.74,0-1.11-.42-1.11-1.27a1.72,1.72,0,0,1,1.07-1.64,12.92,12.92,0,0,1,4.42-.43c.52,0,1.05,0,1.58.05a36.77,36.77,0,0,0-.51-4.18Q432.59,45.7,434.21,45.7Zm10.93,15.11h5.95L451,50.47c0-1.1.48-1.64,1.44-1.64A1.44,1.44,0,0,1,454,50.47l-.14,10.34h7.4c.46,0,.71.25.74.63a2.82,2.82,0,0,1-.56,1.75,2.05,2.05,0,0,1-1.63.75,19.32,19.32,0,0,1-2.79-.48c-1-.07-2.09-.11-3.2-.11l-.14,10.76c1.58.08,3.33.23,5.25.48a46.18,46.18,0,0,0,5.26.32,11.74,11.74,0,0,0,2.18-.21c.12,0,.19.21.19.63a7,7,0,0,1-.7,3c-.5,1.06-1,1.59-1.49,1.59a2.4,2.4,0,0,1-1.49-.58A18.25,18.25,0,0,0,457.32,77a24,24,0,0,0-4.93-.43,26.19,26.19,0,0,0-5.9.59,29.68,29.68,0,0,0-5.21,2.12,2.69,2.69,0,0,1-1.26.42c-.8-.07-1.22-.56-1.25-1.48a2.26,2.26,0,0,1,.7-1.59,2.49,2.49,0,0,1,1.48-.85,80.8,80.8,0,0,1,10.33-1.65l-.14-10.81a30.77,30.77,0,0,0-5.44.42,6,6,0,0,1-1.49.43,1.46,1.46,0,0,1-1.44-1.49,2.07,2.07,0,0,1,.74-1.38A2.63,2.63,0,0,1,445.14,60.81Z"/><path class="cls-1" d="M123.14,29.15a5.07,5.07,0,0,1-.88,1.57c-.52.67-.92,1-1.21,1a5.14,5.14,0,0,1-2.29-1.16q-1-.75-2-1.5a13.83,13.83,0,0,0-2.26-1.23c-.18,2.62-1.6,3.92-4.27,3.92a4.67,4.67,0,0,1-2.61-.72,2.79,2.79,0,0,1-1.35-2.48A2.64,2.64,0,0,1,107.8,26a5.66,5.66,0,0,1,2.78-.63,9.82,9.82,0,0,1,2.51.38q0-.72,0-2c0-1,0-1.67,0-1.94v-.13a.8.8,0,0,1,0-.16,33.07,33.07,0,0,0-4.43.51l-.42.12a1,1,0,0,1-.44.13c-.46,0-.69-.33-.69-1s.52-1.12,1.55-1.23a39.6,39.6,0,0,1,4.4-.25c0-1.05,0-2.33,0-3.86-1.55,0-2.42.07-2.62.09a13.74,13.74,0,0,0-2.59.44c-.68.21-1,.32-1.1.32q-.93,0-.93-1.17a1,1,0,0,1,.24-.65c.24-.3,2.56-.44,7-.44-.06-1.47-.08-2.29-.08-2.48,0-.78.29-1.16.88-1.16s1,.38,1,1.16,0,1.52-.08,2.51q5,.26,6.66.25c.41,0,.61.08.61.25a2.62,2.62,0,0,1-.42,1.26c-.29.5-.57.75-.85.75a7.17,7.17,0,0,0-1.35-.47,23,23,0,0,0-4.68-.63c0,1.34,0,2.62,0,3.83a37.87,37.87,0,0,1,5.48.34,1.45,1.45,0,0,1,.33.1,1.36,1.36,0,0,1,.16.25,3.26,3.26,0,0,1-.33,1q-.3.66-.63.66c-.06,0-.64-.11-1.74-.34a16.47,16.47,0,0,0-3.27-.35c0,.21,0,1.76-.11,4.65q2.53.84,4.84,1.82a11.1,11.1,0,0,0,3.2.78A.47.47,0,0,1,123.14,29.15ZM113,27.2a9.83,9.83,0,0,0-2.81-.53c-1.89,0-2.84.63-2.84,1.88q0,.86,1,1.29a3.31,3.31,0,0,0,1.6.41,2.82,2.82,0,0,0,2.12-.72A4.36,4.36,0,0,0,113,27.2Z"/><path class="cls-1" d="M146.92,27.8c-.26,1.67-.95,2.71-2.09,3.11a17.33,17.33,0,0,1-3.66.22,20.29,20.29,0,0,1-5.92-.73q-3.88-1.21-3.88-4.17a4.72,4.72,0,0,1,.38-1.82c.33-.75.74-1.13,1.24-1.13.13,0,.23.15.3.44s-.25.54-.52,1.13a3.17,3.17,0,0,0-.3,1.32q0,2.56,5.25,2.57a25.19,25.19,0,0,0,6.64-.72l2.26-.66C146.76,27.36,146.86,27.51,146.92,27.8ZM143.4,16.22c-.06.35-.39.7-1,1a37.19,37.19,0,0,1-4.7,2.29c-.22,0-.33-.13-.33-.4s.46-.81,1.4-1.42a7,7,0,0,0,1.49-1.13,2.49,2.49,0,0,0-.94-.09c-1.76,0-3.06,0-3.91.13l-1,.22a6.36,6.36,0,0,1-.91.09c-.53,0-.8-.2-.8-.6a1.3,1.3,0,0,1,1-1.41,11.15,11.15,0,0,1,3.11-.31h1.79Q143.14,14.62,143.4,16.22Zm5.12-1.51a2.27,2.27,0,0,1-.5.94q-.5.66-.69.66c-.33,0-.87-.42-1.62-1.25s-1.13-1.45-1.13-1.76.08-.35.25-.35c.68.3,1.81.76,3.38,1.38A.38.38,0,0,1,148.52,14.71ZM152.59,13a2.17,2.17,0,0,1-.49,1q-.48.66-.69.66-.56,0-1.74-1.26c-.77-.86-1.15-1.46-1.15-1.82s.09-.34.27-.34c.5.29,1,.56,1.57.81a7.58,7.58,0,0,0,1.74.6C152.43,12.65,152.59,12.78,152.59,13Z"/><path class="cls-1" d="M172.75,27.8c-.23,1.67-.93,2.71-2.09,3.11a17.33,17.33,0,0,1-3.66.22,20.47,20.47,0,0,1-5.92-.73q-3.89-1.24-3.88-4.17a4.07,4.07,0,0,1,.44-1.82c.29-.75.7-1.13,1.21-1.13.11,0,.2.15.28.44a8.87,8.87,0,0,1-.5,1.13,3.31,3.31,0,0,0-.3,1.32q0,2.56,5.26,2.57a25,25,0,0,0,6.6-.72c1.58-.44,2.33-.66,2.26-.66C172.62,27.36,172.72,27.51,172.75,27.8Zm-3.52-11.58c0,.31-.33.66-1,1a37.64,37.64,0,0,1-4.71,2.29c-.22,0-.33-.13-.33-.4s.47-.81,1.41-1.42a6.74,6.74,0,0,0,1.48-1.13q-.14-.15-.93-.15a26.23,26.23,0,0,0-3.91.22l-1.85.28c-.53,0-.8-.2-.8-.6,0-.88.55-1.42,1.63-1.63a17.85,17.85,0,0,1,2.45-.09h1.76Q169.23,14.62,169.23,16.22Z"/><path class="cls-1" d="M196.88,25.6a5.53,5.53,0,0,1-3.31,5.24,12.92,12.92,0,0,1-6,1.29,7.81,7.81,0,0,1-2.17-.22,3.38,3.38,0,0,1-1.73-1.41,2.75,2.75,0,0,1-.61-1.35c0-.34.14-.5.41-.5a8.24,8.24,0,0,1,1.52.5,10.39,10.39,0,0,0,3.82.63,9.48,9.48,0,0,0,4.13-.85,3.74,3.74,0,0,0,2.43-3.52A3.51,3.51,0,0,0,194,22.46a4.71,4.71,0,0,0-2.92-.91,11.16,11.16,0,0,0-4.32.94A12.69,12.69,0,0,0,183,24.91c-.64.63-1,.94-1.15.94-.7,0-1-.33-1-1,0-.31.64-1.08,1.9-2.29l2.09-1.89q5.56-5.11,6.31-6.52a1,1,0,0,0-.55-.13,18.63,18.63,0,0,0-4.16.44,18.58,18.58,0,0,1-2.23.47c-.57,0-.85-.3-.85-.91s.49-1,1.48-1.1q2.13-.26,7.71-.25c1,0,1.53.24,1.6.72a2,2,0,0,1-.58.82q-2.53,2.38-7.62,7.25a14.37,14.37,0,0,1,5.12-1.1,6.21,6.21,0,0,1,3.93,1.26A4.71,4.71,0,0,1,196.88,25.6Z"/><path class="cls-1" d="M222.92,21.87q0,5.43-5.26,8.25a7.67,7.67,0,0,1-3.27,1.13,2.13,2.13,0,0,1-1.41-.66,1.86,1.86,0,0,1-.77-1.38c0-.19.21-.33.63-.44s.76-.11,1.33-.22a10.36,10.36,0,0,0,4-1.41,7.55,7.55,0,0,0,2.29-2.42,6.5,6.5,0,0,0,1-3.42,6.29,6.29,0,0,0-.77-2.89q-1.61-3.08-5.56-3.07h-.44l-.39,0q-1.54,8.13-4.1,11.8c-1,1.42-1.85,2.14-2.51,2.14-1,0-1.76-.84-2.36-2.52a11.18,11.18,0,0,1-.75-3.95,9.06,9.06,0,0,1,1.76-5.4q2.7-3.68,8.24-3.67a8.68,8.68,0,0,1,5.81,2A7.55,7.55,0,0,1,222.92,21.87Zm-10.35-6.34a8.24,8.24,0,0,0-5.18,2.88,7.24,7.24,0,0,0-1.57,4.18,9,9,0,0,0,.44,2.57c.39,1.15.84,1.73,1.35,1.73s1-.44,1.63-1.32Q211.33,22.35,212.57,15.53Z"/><path class="cls-1" d="M236.13,11q.66,0,.66.63a1.7,1.7,0,0,1-.22.84A26.32,26.32,0,0,1,234,15.62a1.73,1.73,0,0,1,.2.91c-.1,1.76-.14,3.35-.14,4.77l0,9.83c0,1.29-.33,1.94-1,1.94-.49,0-.74-.65-.74-1.94.13-4.19.19-7.46.19-9.83,0-1.25,0-2.66-.08-4.2-.26.25-.51.48-.77.69a3.21,3.21,0,0,1-1.82.94,1.79,1.79,0,0,1-1.21-.57,1.57,1.57,0,0,1-.63-1.16c0-.29.18-.45.55-.47a10.21,10.21,0,0,0,3.71-1.82,13.59,13.59,0,0,0,3.39-3.45A.75.75,0,0,1,236.13,11Zm2.18,5.27h12.47a.37.37,0,0,1,.41.38,1.78,1.78,0,0,1-.3,1,1.21,1.21,0,0,1-1,.44,18.69,18.69,0,0,1-2.23-.28c-.89,0-1.83-.07-2.84-.09l-.06,4.89h5a.4.4,0,0,1,.42.38,1.76,1.76,0,0,1-.3,1,1.25,1.25,0,0,1-1,.44,13.25,13.25,0,0,1-1.84-.28c-.72,0-1.48-.07-2.29-.09l-.05,5.05a23.19,23.19,0,0,1,3.55.44,23.6,23.6,0,0,0,3.55.28,6.16,6.16,0,0,0,1.19-.12c.07,0,.11.11.11.34a3.53,3.53,0,0,1-.39,1.6c-.28.59-.54.88-.8.88a1.76,1.76,0,0,1-1-.34,12.48,12.48,0,0,0-3.74-1.38,18.08,18.08,0,0,0-3.3-.26,17,17,0,0,0-3.8.38,20.72,20.72,0,0,0-3.36,1.32,1.74,1.74,0,0,1-.8.28c-.5,0-.75-.38-.77-1a1.23,1.23,0,0,1,.41-.88,1.55,1.55,0,0,1,.88-.47,49.46,49.46,0,0,1,6.77-1.07l0-5.05a22.65,22.65,0,0,0-3.64.25,3.85,3.85,0,0,1-1,.25.86.86,0,0,1-.85-.88,1.29,1.29,0,0,1,.44-.85,1.71,1.71,0,0,1,1-.25h4l0-4.89a30.71,30.71,0,0,0-4.26.25,7.32,7.32,0,0,1-1.13.22.82.82,0,0,1-.86-.85,1.36,1.36,0,0,1,.44-.85A1.64,1.64,0,0,1,238.31,16.28Zm5.81-4.9c.64,0,1,.37,1,1.1l-.52,2.29c-.08.36-.22.54-.44.54q-.65,0-.66-.6l-.33-2.35A.87.87,0,0,1,244.12,11.38Z"/><path class="cls-1" d="M276.36,29.15a5.07,5.07,0,0,1-.88,1.57c-.52.67-.92,1-1.21,1A5.1,5.1,0,0,1,272,30.56q-1-.75-2-1.5a13.41,13.41,0,0,0-2.26-1.23c-.18,2.62-1.6,3.92-4.26,3.92a4.68,4.68,0,0,1-2.62-.72,2.79,2.79,0,0,1-1.35-2.48A2.64,2.64,0,0,1,261,26a5.67,5.67,0,0,1,2.79-.63,9.87,9.87,0,0,1,2.5.38q0-.72,0-2c0-1,0-1.67,0-1.94v-.13c0-.08,0-.13,0-.16a33.45,33.45,0,0,0-4.44.51l-.41.12a1,1,0,0,1-.44.13c-.46,0-.69-.33-.69-1s.52-1.12,1.54-1.23a40,40,0,0,1,4.41-.25c0-1.05-.05-2.33-.05-3.86-1.55,0-2.42.07-2.62.09a13.74,13.74,0,0,0-2.59.44c-.68.21-1,.32-1.1.32q-.93,0-.93-1.17a1,1,0,0,1,.24-.65c.24-.3,2.56-.44,7-.44-.06-1.47-.09-2.29-.09-2.48,0-.78.3-1.16.89-1.16s1,.38,1,1.16,0,1.52-.08,2.51q5,.26,6.66.25c.41,0,.61.08.61.25a2.71,2.71,0,0,1-.41,1.26c-.3.5-.58.75-.86.75a7.17,7.17,0,0,0-1.35-.47,23,23,0,0,0-4.68-.63c0,1.34,0,2.62,0,3.83a37.87,37.87,0,0,1,5.48.34,1.45,1.45,0,0,1,.33.1,1.36,1.36,0,0,1,.16.25,3.26,3.26,0,0,1-.33,1q-.3.66-.63.66c-.06,0-.64-.11-1.74-.34a16.47,16.47,0,0,0-3.27-.35c0,.21,0,1.76-.11,4.65q2.54.84,4.84,1.82a11.1,11.1,0,0,0,3.2.78A.47.47,0,0,1,276.36,29.15ZM266.23,27.2a9.83,9.83,0,0,0-2.81-.53c-1.89,0-2.84.63-2.84,1.88q0,.86,1.05,1.29a3.31,3.31,0,0,0,1.6.41,2.82,2.82,0,0,0,2.12-.72A4.36,4.36,0,0,0,266.23,27.2Z"/><path class="cls-1" d="M293,25.1c0,.67-.6,1.84-1.81,3.52s-2.3,2.63-3,2.63-1.4-.49-2.18-1.47q-2.06-2.67-2.06-10a17.42,17.42,0,0,1,.33-4.52.93.93,0,0,1,.91-.66c.59,0,.88.32.88,1,0,.06-.07.63-.2,1.7a46.45,46.45,0,0,0-.32,5.11,9.81,9.81,0,0,0,.93,4.68c.57,1,1.13,1.54,1.68,1.54s1.41-.66,2.59-2a12.56,12.56,0,0,1,1.93-2C292.89,24.63,293,24.79,293,25.1Zm10.41-.91a3,3,0,0,1-.91,1.54,2.18,2.18,0,0,1-1.37.85c-.56,0-1.45-1.07-2.68-3.21s-1.78-3.61-1.78-4.36c0-.29.12-.44.38-.44s.57.43,1.16,1.29a14.39,14.39,0,0,0,2.17,2.42,5.92,5.92,0,0,0,2.23,1.44l.44.12A.85.85,0,0,1,303.42,24.19Z"/><path class="cls-1" d="M328.6,21.49a7.87,7.87,0,0,1-1.79,4.83A10.74,10.74,0,0,1,323,29.43a10.78,10.78,0,0,1-4,1.35,2.14,2.14,0,0,1-1.38-.78,2.34,2.34,0,0,1-.77-1.48c0-.23.29-.37.85-.41a20.86,20.86,0,0,0,4.41-.94,7.16,7.16,0,0,0,3.74-2.67,5.22,5.22,0,0,0,1.16-3q0-4-4.79-4a31.27,31.27,0,0,0-10.85,2.39,4.52,4.52,0,0,1-1.07.34c-.51,0-.77-.35-.77-1.06,0-.86.61-1.48,1.84-1.85A37.22,37.22,0,0,1,321.42,16c3.1,0,5.2.86,6.3,2.6A5.33,5.33,0,0,1,328.6,21.49Zm.36-7a2.8,2.8,0,0,1-.52,1c-.3.44-.52.66-.69.66-.33,0-.88-.43-1.65-1.28S325,13.35,325,13s.09-.35.28-.35a3.84,3.84,0,0,1,1,.57,5.08,5.08,0,0,0,2.23.81C328.75,14.09,328.93,14.23,329,14.46Zm3.53-1.7a2.28,2.28,0,0,1-.5,1q-.47.66-.69.66-.49,0-1.65-1.29c-.75-.86-1.13-1.46-1.13-1.79s.09-.31.28-.31q.79.4,1.59.84a3.7,3.7,0,0,0,1.63.54C332.33,12.4,332.49,12.53,332.49,12.76Z"/><path class="cls-1" d="M351.36,30.12c0,.42-.44.94-1.21,1.57a3.27,3.27,0,0,1-1.74.91c-.18,0-.55-.42-1.1-1.25a27.19,27.19,0,0,0-3.44-4.24A29.24,29.24,0,0,0,339,23.22c-.59-.38-.89-.71-.89-1s.51-.89,1.52-1.72A21.43,21.43,0,0,0,343,16.78c.6-.81,1.52-2.24,2.75-4.27a1.4,1.4,0,0,1,1.16-.81c.71,0,1.07.37,1.07,1.13q0,.84-2.83,4c-1.55,1.67-2.79,2.94-3.75,3.79-.35.32-.85.76-1.51,1.32a75.26,75.26,0,0,1,7.24,5.37c.8.69,1.38,1.16,1.73,1.41a7.84,7.84,0,0,0,1.93,1A3.72,3.72,0,0,1,351.36,30.12Z"/><path class="cls-1" d="M373.43,20.77A12.88,12.88,0,0,1,372,26.51a11.16,11.16,0,0,1-3.55,4.43,6.65,6.65,0,0,1-3.5,1.5,2.34,2.34,0,0,1-1.43-.75,2.17,2.17,0,0,1-.83-1.51c0-.23.41-.36,1.21-.4a8.32,8.32,0,0,0,5.48-2.67,9.75,9.75,0,0,0,2.54-7c0-4-.86-6-2.56-6A3.23,3.23,0,0,0,367,15.59a11.81,11.81,0,0,0-1.52,2.64,15.78,15.78,0,0,0-1.1,5.24c-.05.88-.31,1.32-.77,1.32q-1.55,0-1.54-6.16a29.26,29.26,0,0,1,.3-4.26c.3-2.12.77-3.17,1.43-3.17.44,0,.67.37.67,1.13,0,0-.13.67-.39,1.94a31.4,31.4,0,0,0-.55,6,21.56,21.56,0,0,1,2.12-4.8,4.79,4.79,0,0,1,4-2.48c1.38,0,2.42,1,3.11,2.86A15.52,15.52,0,0,1,373.43,20.77Z"/><path class="cls-1" d="M11.89,35.54a9.53,9.53,0,0,1-.2-1.94c0-5.81,5.33-10.52,11.9-10.52a12,12,0,0,1,11.06,6.67h42.7a11.42,11.42,0,0,0-4.14-7L43,1.23a7.89,7.89,0,0,0-8.46,0L4.22,22.7A11.3,11.3,0,0,0,0,30.88V41.39H66.08a9.43,9.43,0,0,1,.2,1.93c0,5.81-5.32,10.52-11.89,10.52a12,12,0,0,1-11.07-6.67H0V58.33a5.2,5.2,0,0,0,5.17,5.19H72.26a5.2,5.2,0,0,0,5.18-5.19V35.54H11.89Z"/><path class="cls-1" d="M7.36,73.92C2.88,73.15,2,72.64,2,70.33a3.63,3.63,0,0,1,3.91-3.81c3.62,0,5.3,2.65,5.54,5.58h.43V66.71h-.43c-.09.33-.17,1-.79,1-.92,0-2-1.57-4.75-1.57a4.83,4.83,0,0,0-5,5.07c0,4.31,2,5,6.23,5.62,3.1.47,4.56,1.26,4.56,3.93,0,2.31-1.86,3.88-4.45,3.88-3.24,0-5.91-2-5.91-6.35H.83v6.5h.43c0-.43,0-1.08.68-1.08,1,0,2.42,1.34,5.12,1.34,3.91,0,5.86-2.52,5.86-5.88S11.3,74.59,7.36,73.92Z"/><path class="cls-1" d="M26,76.42c0-1.52-.78-2.91-3.56-2.91a4.56,4.56,0,0,0-3.87,2.62h-.06V66.37H14.24v.41h2V84.2h-2v.41h6.21V84.2h-2V77c.47-.87,1.59-3,3.77-3,.83,0,1.54.46,1.54,1.88v8.4H21.73v.41H28V84.2H26Z"/><polygon class="cls-1" points="33.52 74.08 29.1 74.08 29.1 74.49 31.26 74.49 31.26 84.2 29.1 84.2 29.1 84.61 35.68 84.61 35.68 84.2 33.52 84.2 33.52 74.08"/><path class="cls-1" d="M32.39,70.2a1.31,1.31,0,1,0,0-2.62,1.31,1.31,0,1,0,0,2.62Z"/><path class="cls-1" d="M48.38,76.42c0-1.52-.72-2.91-3.24-2.91a4.2,4.2,0,0,0-3.52,2.62h0V74.07H37.72v.42h1.87V84.2H37.72v.41h5.65V84.2H41.58V77c.42-.87,1.43-3,3.42-3,.75,0,1.39.46,1.39,1.88v8.4H44.53v.41h5.71V84.2H48.38Z"/><path class="cls-1" d="M63.59,84.5c-2.54,0-2.81-2-2.78-3.87V78.21h7a.21.21,0,0,0,.24-.23c0-1.07-1.64-4.47-4.83-4.47-2.94,0-5,3.21-5,5.7,0,3.4,2.21,5.71,5.37,5.71a4.66,4.66,0,0,0,4.75-4h-.43A4.21,4.21,0,0,1,63.59,84.5Zm-2.78-7.42c0-1.64.57-3.16,2.45-3.16s2.25,1.52,2.25,3.16v.54a.17.17,0,0,1-.2.18h-4.5Z"/><polygon class="cls-1" points="74.45 84.2 74.46 74.08 70.03 74.08 70.03 74.49 72.19 74.49 72.19 84.2 70.03 84.2 70.03 84.61 76.61 84.61 76.61 84.2 74.45 84.2"/><path class="cls-1" d="M73.32,70.2a1.31,1.31,0,1,0-1.38-1.31A1.35,1.35,0,0,0,73.32,70.2Z"/><path class="cls-1" d="M51.05,76.78h5.57v.79H51.05Z"/></g></g></svg>