<svg xmlns="http://www.w3.org/2000/svg" viewBox="0 0 811.35 5.9"><defs><style>.cls-1{fill:none;stroke:#ddd6d0;stroke-miterlimit:10;}</style></defs><g id="Layer_2" data-name="Layer 2"><g id="レイヤー_1" data-name="レイヤー 1"><line class="cls-1" x1="0.33" y1="5.52" x2="6.25" y2="0.38"/><line class="cls-1" x1="8.46" y1="5.52" x2="14.38" y2="0.38"/><line class="cls-1" x1="16.59" y1="5.52" x2="22.51" y2="0.38"/><line class="cls-1" x1="24.71" y1="5.52" x2="30.64" y2="0.38"/><line class="cls-1" x1="32.84" y1="5.52" x2="38.76" y2="0.38"/><line class="cls-1" x1="40.97" y1="5.52" x2="46.89" y2="0.38"/><line class="cls-1" x1="49.1" y1="5.52" x2="55.02" y2="0.38"/><line class="cls-1" x1="57.23" y1="5.52" x2="63.15" y2="0.38"/><line class="cls-1" x1="65.36" y1="5.52" x2="71.28" y2="0.38"/><line class="cls-1" x1="73.49" y1="5.52" x2="79.41" y2="0.38"/><line class="cls-1" x1="81.62" y1="5.52" x2="87.54" y2="0.38"/><line class="cls-1" x1="89.75" y1="5.52" x2="95.67" y2="0.38"/><line class="cls-1" x1="97.88" y1="5.52" x2="103.8" y2="0.38"/><line class="cls-1" x1="106" y1="5.52" x2="111.93" y2="0.38"/><line class="cls-1" x1="114.13" y1="5.52" x2="120.05" y2="0.38"/><line class="cls-1" x1="122.26" y1="5.52" x2="128.18" y2="0.38"/><line class="cls-1" x1="130.39" y1="5.52" x2="136.31" y2="0.38"/><line class="cls-1" x1="138.52" y1="5.52" x2="144.44" y2="0.38"/><line class="cls-1" x1="146.65" y1="5.52" x2="152.57" y2="0.38"/><line class="cls-1" x1="154.78" y1="5.52" x2="160.7" y2="0.38"/><line class="cls-1" x1="162.91" y1="5.52" x2="168.83" y2="0.38"/><line class="cls-1" x1="171.04" y1="5.52" x2="176.96" y2="0.38"/><line class="cls-1" x1="179.17" y1="5.52" x2="185.09" y2="0.38"/><line class="cls-1" x1="187.29" y1="5.52" x2="193.22" y2="0.38"/><line class="cls-1" x1="195.42" y1="5.52" x2="201.34" y2="0.38"/><line class="cls-1" x1="203.55" y1="5.52" x2="209.47" y2="0.38"/><line class="cls-1" x1="211.68" y1="5.52" x2="217.6" y2="0.38"/><line class="cls-1" x1="219.81" y1="5.52" x2="225.73" y2="0.38"/><line class="cls-1" x1="227.94" y1="5.52" x2="233.86" y2="0.38"/><line class="cls-1" x1="236.07" y1="5.52" x2="241.99" y2="0.38"/><line class="cls-1" x1="244.2" y1="5.52" x2="250.12" y2="0.38"/><line class="cls-1" x1="252.33" y1="5.52" x2="258.25" y2="0.38"/><line class="cls-1" x1="260.46" y1="5.52" x2="266.38" y2="0.38"/><line class="cls-1" x1="268.58" y1="5.52" x2="274.51" y2="0.38"/><line class="cls-1" x1="276.71" y1="5.52" x2="282.63" y2="0.38"/><line class="cls-1" x1="284.84" y1="5.52" x2="290.76" y2="0.38"/><line class="cls-1" x1="292.97" y1="5.52" x2="298.89" y2="0.38"/><line class="cls-1" x1="301.1" y1="5.52" x2="307.02" y2="0.38"/><line class="cls-1" x1="309.23" y1="5.52" x2="315.15" y2="0.38"/><line class="cls-1" x1="317.36" y1="5.52" x2="323.28" y2="0.38"/><line class="cls-1" x1="325.49" y1="5.52" x2="331.41" y2="0.38"/><line class="cls-1" x1="333.62" y1="5.52" x2="339.54" y2="0.38"/><line class="cls-1" x1="341.75" y1="5.52" x2="347.67" y2="0.38"/><line class="cls-1" x1="349.87" y1="5.52" x2="355.8" y2="0.38"/><line class="cls-1" x1="358" y1="5.52" x2="363.92" y2="0.38"/><line class="cls-1" x1="366.13" y1="5.52" x2="372.05" y2="0.38"/><line class="cls-1" x1="374.26" y1="5.52" x2="380.18" y2="0.38"/><line class="cls-1" x1="382.39" y1="5.52" x2="388.31" y2="0.38"/><line class="cls-1" x1="390.52" y1="5.52" x2="396.44" y2="0.38"/><line class="cls-1" x1="398.65" y1="5.52" x2="404.57" y2="0.38"/><line class="cls-1" x1="406.78" y1="5.52" x2="412.7" y2="0.38"/><line class="cls-1" x1="414.91" y1="5.52" x2="420.83" y2="0.38"/><line class="cls-1" x1="423.04" y1="5.52" x2="428.96" y2="0.38"/><line class="cls-1" x1="431.16" y1="5.52" x2="437.09" y2="0.38"/><line class="cls-1" x1="439.29" y1="5.52" x2="445.21" y2="0.38"/><line class="cls-1" x1="447.42" y1="5.52" x2="453.34" y2="0.38"/><line class="cls-1" x1="455.55" y1="5.52" x2="461.47" y2="0.38"/><line class="cls-1" x1="463.68" y1="5.52" x2="469.6" y2="0.38"/><line class="cls-1" x1="471.81" y1="5.52" x2="477.73" y2="0.38"/><line class="cls-1" x1="479.94" y1="5.52" x2="485.86" y2="0.38"/><line class="cls-1" x1="488.07" y1="5.52" x2="493.99" y2="0.38"/><line class="cls-1" x1="496.2" y1="5.52" x2="502.12" y2="0.38"/><line class="cls-1" x1="504.33" y1="5.52" x2="510.25" y2="0.38"/><line class="cls-1" x1="512.45" y1="5.52" x2="518.38" y2="0.38"/><line class="cls-1" x1="520.58" y1="5.52" x2="526.5" y2="0.38"/><line class="cls-1" x1="528.71" y1="5.52" x2="534.63" y2="0.38"/><line class="cls-1" x1="536.84" y1="5.52" x2="542.76" y2="0.38"/><line class="cls-1" x1="544.97" y1="5.52" x2="550.89" y2="0.38"/><line class="cls-1" x1="553.1" y1="5.52" x2="559.02" y2="0.38"/><line class="cls-1" x1="561.23" y1="5.52" x2="567.15" y2="0.38"/><line class="cls-1" x1="569.36" y1="5.52" x2="575.28" y2="0.38"/><line class="cls-1" x1="577.49" y1="5.52" x2="583.41" y2="0.38"/><line class="cls-1" x1="585.62" y1="5.52" x2="591.54" y2="0.38"/><line class="cls-1" x1="593.74" y1="5.52" x2="599.67" y2="0.38"/><line class="cls-1" x1="601.87" y1="5.52" x2="607.79" y2="0.38"/><line class="cls-1" x1="610" y1="5.52" x2="615.92" y2="0.38"/><line class="cls-1" x1="618.13" y1="5.52" x2="624.05" y2="0.38"/><line class="cls-1" x1="626.26" y1="5.52" x2="632.18" y2="0.38"/><line class="cls-1" x1="634.39" y1="5.52" x2="640.31" y2="0.38"/><line class="cls-1" x1="642.52" y1="5.52" x2="648.44" y2="0.38"/><line class="cls-1" x1="650.65" y1="5.52" x2="656.57" y2="0.38"/><line class="cls-1" x1="658.78" y1="5.52" x2="664.7" y2="0.38"/><line class="cls-1" x1="666.91" y1="5.52" x2="672.83" y2="0.38"/><line class="cls-1" x1="675.03" y1="5.52" x2="680.96" y2="0.38"/><line class="cls-1" x1="683.16" y1="5.52" x2="689.08" y2="0.38"/><line class="cls-1" x1="691.29" y1="5.52" x2="697.21" y2="0.38"/><line class="cls-1" x1="699.42" y1="5.52" x2="705.34" y2="0.38"/><line class="cls-1" x1="707.55" y1="5.52" x2="713.47" y2="0.38"/><line class="cls-1" x1="715.68" y1="5.52" x2="721.6" y2="0.38"/><line class="cls-1" x1="723.81" y1="5.52" x2="729.73" y2="0.38"/><line class="cls-1" x1="731.94" y1="5.52" x2="737.86" y2="0.38"/><line class="cls-1" x1="740.07" y1="5.52" x2="745.99" y2="0.38"/><line class="cls-1" x1="748.2" y1="5.52" x2="754.12" y2="0.38"/><line class="cls-1" x1="756.32" y1="5.52" x2="762.25" y2="0.38"/><line class="cls-1" x1="764.45" y1="5.52" x2="770.37" y2="0.38"/><line class="cls-1" x1="772.58" y1="5.52" x2="778.5" y2="0.38"/><line class="cls-1" x1="780.71" y1="5.52" x2="786.63" y2="0.38"/><line class="cls-1" x1="788.84" y1="5.52" x2="794.76" y2="0.38"/><line class="cls-1" x1="796.97" y1="5.52" x2="802.89" y2="0.38"/><line class="cls-1" x1="805.1" y1="5.52" x2="811.02" y2="0.38"/></g></g></svg>