<svg xmlns="http://www.w3.org/2000/svg" width="311.66" height="227.88" viewBox="0 0 311.66 227.88"><g id="fdea7961-14ac-4adf-bc89-cbd88b3409fc" data-name="Layer 2"><g id="bf479c8d-0fcf-4219-9300-c52affc512c2" data-name="レイヤー 1"><path d="M62.72,22.72a73.74,73.74,0,0,1-5,10.08,47.25,47.25,0,0,1,7.94,4.4c2.33-4.32,6.9-13.68,9.14-18.48L66.33,14.4C64.49,18.88,63.52,20.88,62.72,22.72ZM13,49.84h6v5h8.34V8.72H4.57V57.45H13ZM13,17.2h6V41.52H13Zm25.35-.48-7.78,3.84c4.09,7.68,4.49,8.32,7.06,15.28L45.88,32C42.67,24.8,41.79,22.64,38.34,16.72Zm9.22-4.24V38.4H29V47h18.6V62.73c0,1-.32,1.44-1.28,1.44h-7.7a22.38,22.38,0,0,1,3.61,8.72C53.58,72.09,57,71.05,57,64.65V47H74.67V38.4H57V11A102.93,102.93,0,0,0,72.11,8.08L66.57,0a209.71,209.71,0,0,1-38.5,5.84,40.41,40.41,0,0,1,3.37,8.4C36.33,14.08,43.79,13,47.56,12.48Zm53.21,51.85A39.17,39.17,0,0,1,107.66,72c12-10.8,15.16-19.13,18.37-28.49a59.85,59.85,0,0,0,7.86,12c-5.37,4.33-9.94,6.65-16.6,9.21a37.82,37.82,0,0,1,6.18,8.16C128,71,131.89,69,140.39,62.49a68.43,68.43,0,0,0,14.36,10.24,27.83,27.83,0,0,1,5.85-8.64c-9-5.2-9.94-5.76-13.39-8.89,6.41-9.2,8.18-14.16,12.35-26.8l-5.78-4.88-.88.4h-7.3c.8-5.92,2.09-14.08,3.21-21.44H112.16V11h7.94C120.1,45.52,111.51,55.36,100.77,64.33ZM130,11h8.5c-.72,5.76-1.2,8.4-3.61,21.68l9.23,1.2.48-2.08h4a50.62,50.62,0,0,1-8.26,17,49.69,49.69,0,0,1-7.62-11.52,79.85,79.85,0,0,1-3.69-9.6C129.56,22.4,129.88,16.8,130,11ZM97.32,49.84h14.19V9.28H88.9v48h8.42Zm0-32.32h6.09v24H97.32Zm74.55,5.68c7.78-.4,24.55-1.28,33.29-1.6v6A10.8,10.8,0,0,0,198.34,25c-7.3,0-12.83,6.64-12.83,15,0,8.16,5.85,14.32,12.19,14.32,3.13,0,5.61-1.28,8.18-3-5.78,9.29-14,11-23.26,12a20.43,20.43,0,0,1,4.81,9.68c6.9-1.28,27.83-5.76,27.83-24.81v-.32a42.67,42.67,0,0,0-.56-6.8c0-2.88.24-16.88.24-20.08,3.93,0,21.34-.16,24.87-.16l-.08-10c-6.18.24-9.87.56-13.56.72-3,.08-6.17.08-11.15.16,0-3,0-7.12.32-11.44L204.68.24c0,2.24.32,10.72.32,12.08-4.81.08-27.91,1-33.21,1.12Zm27.51,23.68c-2.64,0-5.21-1.92-5.21-7.76,0-3.2,2.17-6.8,5.05-6.8,3.77,0,5.7,4.88,5.7,7C204.84,42.64,203.07,46.88,199.38,46.88Zm112.28,1c0-11.68-8.9-19.36-23-19.36A39.67,39.67,0,0,0,277.73,30c4.81-4.48,7.46-6.8,9.63-8.8C294.42,15,296.1,13.76,300,11.12L294.5,2.48c-7.7,2.4-18,3.76-33.77,4.08l.48,9.76a114.91,114.91,0,0,0,22.22-3.2c-10,9.6-22.3,20.4-35.54,31.52l6.5,7.84c6.5-6.4,16.44-16.24,30.72-16.24,11.07,0,15.48,5.52,15.48,11.68,0,8.24-5.69,11-7.86,12.09-3-8.81-10.59-13-17.08-13-6.34,0-12.92,4-12.92,10.24,0,11,15,13.37,21.9,13.37C300.43,70.65,311.66,60.41,311.66,47.92Zm-40.34,9.93c0-1.21,1-3.13,4-3.13a8.65,8.65,0,0,1,4.25,1.36,11.14,11.14,0,0,1,4.57,6.33C272.92,62.73,271.32,59.21,271.32,57.85ZM74.59,153.45H54.06v-15H69.78v-8.48H54.06V116.8H72v-9H49.33L56,102.4A86,86,0,0,0,45.16,90.72l-6.9,5.76c5.77,6.24,6.42,6.88,9.86,11.36H25.75v9H44.27v13.12H28.63v8.48H44.27v15H23.5v8.88H74.59Zm-63.84,11h9.78V110.56c1-2.24,5.46-13.12,6.82-16.48l-9.62-3.36C11.79,109.12,6.18,117.6,0,126.8a24.14,24.14,0,0,1,4.81,10,66.56,66.56,0,0,0,5.94-8.48ZM126.14,140c0-1.12-.32-7.92-.24-9.44,4.74-.24,6.18-.4,19.33-1.6l-.4-9.2c-5.85.88-12.91,1.68-19,2.16-.08-1.12.08-6.88.08-8.16a216,216,0,0,0,22.54-2.48l-.24-10c-10.27,1.92-13.71,2.48-21.9,3a47.41,47.41,0,0,0,.25-5.36,36.86,36.86,0,0,1,.72-5.2l-11.63-.16c0,1.76.16,9.68.16,11.28-13.24,0-18-.64-24.87-2.16l-1.52,9.52a138.51,138.51,0,0,0,26.23,2v8a81.89,81.89,0,0,1-9.79-.32c-2.73-.48-3.13-1.12-3.21-4.32l-9.62.72c.16,2.32.64,8.24,5.21,10.64,3.85,1.84,15.8,1.84,17.65,1.84,0,2.4.24,5.28.24,7.28-2-.16-3.69-.24-5.13-.24-14.84,0-20.14,7.2-20.14,12.65,0,4.8,4.09,13,19,13,3.13,0,8.26-.48,11.79-2.56,3.93-2.32,4.65-5.52,4.57-11.37,6.42,2.81,10.75,4.65,19.09,11.21l6.66-8.56A86.58,86.58,0,0,0,126.14,140ZM108.9,155.21c-3.85,0-8.34-1.52-8.34-4.32,0-.4,0-4.57,9.38-4.57a27.46,27.46,0,0,1,6.26.48C116.2,152.57,116.12,155.21,108.9,155.21Zm98-48.17a82.47,82.47,0,0,1,9.54,19.2,115,115,0,0,1,5.06,21l10.66-2.8c-2.4-13.12-6.49-27.36-16.84-41.36Zm-12.75,34.8a26.47,26.47,0,0,1-7.94-6.48c-.65,2.24-3,9.92-4.66,9.92-2,0-4.17-9.68-4.17-17.52A85.44,85.44,0,0,1,179,112a69.24,69.24,0,0,1,2.64-9.68l-11.07-2.8a117.45,117.45,0,0,0-3.12,26.24c0,21.6,8.66,33.29,14.27,33.29C182.68,159.05,188.53,158.89,194.15,141.84ZM5.76,218.22H26.05v-1.87H5.76ZM12,206.55v1.69H7.12v7.27H24.38v-7.27H19.54v-1.62H17v1.62H14.51v-1.69Zm0,7.21H9.58v-1.09H12Zm0-2.71H9.58v-1H12Zm7.55-1h2.18v1H19.54Zm0,2.63h2.18v1.09H19.54ZM17,213.76H14.51v-1.09H17ZM17,210v1H14.51v-1Zm4.05,13.56H23.5v-4.71H8.14v4.71H10.6c.21.49.42,1,.6,1.46H5.55v2H26.31v-2H20.47C20.72,224.57,20.93,224,21.09,223.6Zm-10.4-1.68v-1.35H20.86v1.35Zm7.14,3.14h-4c-.19-.49-.39-.93-.63-1.46h5.17C18.2,224.09,18,224.57,17.83,225.06Zm32.71-14.95-2,1.64a16.28,16.28,0,0,1,2.87,3.44,9.06,9.06,0,0,1,1.07,2.91c0,.79-.44.79-.68.79a7.15,7.15,0,0,1-1.13-.12,6.92,6.92,0,0,1,.39,2.8,16.53,16.53,0,0,0,1.65.11c1,0,2.87,0,2.87-2.7C55.59,216.81,54.64,213.8,50.54,210.11Zm-5.82.92c-.3,0-.62,0-1,.05.28-.83.67-2.08,1-3.1l-3.22-.92a35.68,35.68,0,0,1-1.11,4.41c-2.76.35-3.22.42-4.68.53l.46,3.08a22.36,22.36,0,0,1,3.38-.74c-2.41,6-3.66,8.29-5.23,10.72l2.78,1.5a80.67,80.67,0,0,0,5.65-12.8,13.21,13.21,0,0,1,1.39-.12c.79,0,1.64.23,1.64,2.17,0,2.52-1.64,7.88-2.68,7.88-.67,0-1.53-1.64-1.53-1.66a8,8,0,0,1-1.76,2.06c1.23,1.8,2.38,2.84,3.59,2.84,3.5,0,5.23-8,5.23-11.21C48.59,213.94,48,211,44.72,211Zm36.91,1-1.44,1.15a26.24,26.24,0,0,1,2.48,2.68l1.44-1.24A23.35,23.35,0,0,0,81.63,212.05Zm-8.9,6.33c0-2.52,2-5.22,4.94-6.84,1.5-.09,3.45-.21,5.26-.35l-.12-2.91c-6.16.76-12.65,1.34-19.41,1.8l.14,3c4.28-.6,5.72-.81,9.7-1.22a10.8,10.8,0,0,0-3,4.48,7.35,7.35,0,0,0-.44,2.49,6.68,6.68,0,0,0,3.08,5.74c1.62,1.15,3.22,1.8,6.93,2.12l.07-3.28a9.85,9.85,0,0,1-4.66-1A4.57,4.57,0,0,1,72.73,218.38Zm6.63-4.65L78,214.87a17.45,17.45,0,0,1,2.41,2.75l1.43-1.18A20.18,20.18,0,0,0,79.36,213.73Zm24.4-2.84h6.9v-2.33h-6.9v-2.08h-3v2.08h-7v2.33h7v1.67H92V215H96.5c.26.72.56,1.48.79,2.17H92.38v2.41h8.41v1.73H93.45v2.54h7.34v3.79h3v-3.79h7.48v-2.54h-7.48v-1.73h8.71v-2.41h-5.29a20.35,20.35,0,0,0,1-2.17h4.52v-2.4h-8.94Zm1.41,4.07c-.28.69-.6,1.5-.93,2.17h-4c-.28-.71-.58-1.52-.79-2.17Zm28.33,4a6,6,0,0,1-2.13-.83,8.35,8.35,0,0,1-.46,2.75,12.41,12.41,0,0,0,3.75,1c2.09,0,2.32-1.48,2.43-6.61.95,0,3.8-.07,4.43-.12l-.05-2.88-4.31.32c0-.67-.07-4.09-.07-4.88l-3.1,0c.12,2.61.14,2.89.14,5.1-1.69.1-4.87.33-5.75.37.1-1.15.12-2.86.21-4l-3.33.07c0,1.39,0,2.91,0,4.14-1,.09-2.75.16-4,.2l.07,2.87c1.23-.09,2.71-.26,4-.35,0,1.69,0,2.77,0,3.61a26.16,26.16,0,0,0,.11,3.65c.42,2.84,3.73,3.19,7.86,3.19,1.73,0,3.33-.1,5.44-.26l-.07-3a30.06,30.06,0,0,1-8.66.18c-1.7-.28-1.7-.88-1.7-2.26,0-2,0-2.85,0-5.37.81,0,4.91-.27,5.84-.34a22.78,22.78,0,0,1-.14,2.79C134,218.5,133.9,219,133.5,219Zm23.77-5.7a35.89,35.89,0,0,1,7.21-.7c.83,0,1.69,0,3.08.05l.16-2.89c-.9,0-1.62,0-2.22,0a35.47,35.47,0,0,0-8.5.83ZM152,208a60.33,60.33,0,0,0-1.32,11.88,36.2,36.2,0,0,0,.63,6.88l2.92-.6a38.64,38.64,0,0,1-.6-6.54A49.25,49.25,0,0,1,155,208.72Zm12.49,14.77c-5.23,0-5.51-.86-5.51-3.1h-2.74c-.32,5.62,3.8,6.15,9.87,6.15a18.43,18.43,0,0,0,2.74-.21l-.14-3.17A18.87,18.87,0,0,1,164.5,222.75Zm34.06-3.47v-1.8h-11.7c.21-.26.44-.56.6-.79h8v-6.07H192.6v-.91h5.77V207.8H192.6v-1.21h-2.43v1.21h-4.28v-1.21h-2.53v1.21h-5.49v1.91h5.49v.91h-2.59v6.07h3.68a7.52,7.52,0,0,1-.67.79h-6.05v1.8H182a17.85,17.85,0,0,1-4.8,2.73,7.77,7.77,0,0,1,1.46,2.12,19.09,19.09,0,0,0,2.87-1.61v5H184v-.67h7.67v.58h2.68v-4.9a29,29,0,0,0,3.18,1.69,6.92,6.92,0,0,1,1.53-2.15,17.21,17.21,0,0,1-5.22-2.82Zm-8,0,.79.83H184.5l.85-.83Zm-4.7-9.57h4.28v.91h-4.28Zm-2.69,2.48h9.7V213h-9.7Zm0,3v-.81h9.7v.81Zm8.48,10.1H184v-1h7.67Zm0-2.52H184v-1h7.67Zm27.47-14a29.92,29.92,0,0,1-7.39-2.43l-1.13,2.48a27.61,27.61,0,0,0,7.67,2.7Zm-1,6.75a12.48,12.48,0,0,0-7.14,2.4,30.31,30.31,0,0,1,1.46-5.78l-3.08-.8A71.34,71.34,0,0,0,208,221l2.23,1.16a10.06,10.06,0,0,1,3.66-3.12,8.62,8.62,0,0,1,3.94-1c1.94,0,2.8,1,2.8,2.22,0,2-2.39,4.16-8.46,4.16-.44,0-1,0-1.59,0a6.36,6.36,0,0,1,.78,2.91,25.09,25.09,0,0,0,7.05-.92c3.61-1.06,5.51-3.4,5.51-6.1S221.89,215.47,218.16,215.47ZM244.94,219a5.94,5.94,0,0,1-2.13-.83,8.35,8.35,0,0,1-.46,2.75,12.34,12.34,0,0,0,3.75,1c2.08,0,2.31-1.48,2.43-6.61.95,0,3.8-.07,4.43-.12l-.05-2.88-4.31.32c0-.67-.07-4.09-.07-4.88l-3.1,0c.11,2.61.14,2.89.14,5.1-1.7.1-4.87.33-5.75.37.09-1.15.12-2.86.21-4l-3.34.07c.05,1.39.05,2.91.05,4.14-1,.09-2.76.16-4.06.2l.07,2.87c1.23-.09,2.71-.26,4-.35,0,1.69,0,2.77,0,3.61a25.29,25.29,0,0,0,.12,3.65c.42,2.84,3.73,3.19,7.85,3.19,1.74,0,3.34-.1,5.45-.26l-.07-3a30.13,30.13,0,0,1-8.67.18c-1.69-.28-1.69-.88-1.69-2.26,0-2,0-2.85,0-5.37.81,0,4.91-.27,5.84-.34a25.18,25.18,0,0,1-.14,2.79C245.4,218.5,245.33,219,244.94,219Zm27.59-4.2a11.71,11.71,0,0,0-3.15.41c1.39-1.29,2.16-2,2.78-2.54a30,30,0,0,1,3.66-2.91l-1.6-2.5a35.36,35.36,0,0,1-9.75,1.18l.14,2.82a33.37,33.37,0,0,0,6.42-.92c-2.9,2.77-6.44,5.89-10.27,9.1l1.88,2.27c1.88-1.85,4.75-4.69,8.87-4.69,3.2,0,4.47,1.59,4.47,3.37a3.6,3.6,0,0,1-2.27,3.49,5.29,5.29,0,0,0-4.93-3.74c-1.83,0-3.73,1.15-3.73,3,0,3.19,4.33,3.86,6.32,3.86,4.57,0,7.81-3,7.81-6.56C279.18,217,276.61,214.8,272.53,214.8Zm-5,8.46c0-.35.3-.91,1.16-.91a2.46,2.46,0,0,1,1.22.4,3.15,3.15,0,0,1,1.33,1.82C268,224.67,267.53,223.65,267.53,223.26Zm36.39-3.7c1.14-.63,1.74-.9,2.27-1.2s.82-.51,1.7-1l-1.7-2.13c-1.08.72-2.27,1.55-3.33,2.18a9.87,9.87,0,0,1-.93-2.89h3.29v-1.09h2.69v-4.85H300v-2h-3.2v2h-8v4.94h2.62v1h3.08a19.89,19.89,0,0,1-6.41,2.52,9.26,9.26,0,0,1,1.32,2.17,24.69,24.69,0,0,0,6.67-2.89,4.13,4.13,0,0,1,.46.72,26.11,26.11,0,0,1-8.15,3.65,7.29,7.29,0,0,1,1.34,2,29.68,29.68,0,0,0,7.71-3.81,5.49,5.49,0,0,1,.26.78,29.73,29.73,0,0,1-9.31,4.79,6.18,6.18,0,0,1,1.27,2.17,32,32,0,0,0,8.43-4.46c0,.58.05,1,.05,1.29,0,1.62-.16,1.85-1.09,1.92h-1.85a6.42,6.42,0,0,1,.83,2.5c3.92-.1,4.75-1,4.75-4.42a11.8,11.8,0,0,0-2.9-8.32,4.6,4.6,0,0,0,.88-.64h.77a18.35,18.35,0,0,0,7.9,12.36,6.91,6.91,0,0,1,1.85-2.45C305.89,222.33,304.8,220.92,303.92,219.56Zm-12.41-7.3v-1.39h13.6v1.39Z" fill="#fff"/></g></g></svg>